<?xml version="1.0" encoding="utf-8"?>
<!-- Generator: Adobe Illustrator 28.1.0, SVG Export Plug-In . SVG Version: 6.00 Build 0)  -->
<svg version="1.1" id="Layer_1" focusable="false" xmlns="http://www.w3.org/2000/svg" xmlns:xlink="http://www.w3.org/1999/xlink"
	 x="0px" y="0px" viewBox="0 0 94.2 21.4" style="enable-background:new 0 0 94.2 21.4;" xml:space="preserve">
<style type="text/css">
	.st0{fill:#FF0000;}
	.st1{fill:#FFFFFF;}
	.st2{fill:#969696;}
	.st3{font-family:'Roboto-Thin';}
	.st4{font-size:7px;}
</style>
<g>
	<g>
		<path class="st0" d="M28,4.5c-0.3-1.2-1.3-2.2-2.5-2.5c-2.2-0.6-11.2-0.6-11.2-0.6S5.4,1.4,3.1,2C1.9,2.3,0.9,3.3,0.6,4.5
			C0,6.7,0,11.4,0,11.4s0,4.6,0.6,6.9c0.3,1.2,1.3,2.2,2.5,2.5c2.2,0.6,11.2,0.6,11.2,0.6s8.9,0,11.2-0.6c1.2-0.3,2.2-1.3,2.5-2.5
			c0.6-2.2,0.6-6.9,0.6-6.9S28.6,6.7,28,4.5z"/>
		<path class="st1" d="M11.4,15.7l7.4-4.3l-7.4-4.3V15.7z"/>
	</g>
	<g>
		<g id="youtube-paths">
			<path d="M34.6,14.4L31.4,2.8h2.8L35.3,8c0.3,1.3,0.5,2.4,0.6,3.3H36c0.1-0.7,0.3-1.7,0.6-3.3l1.2-5.3h2.8l-3.2,11.6v5.6h-2.8
				V14.4L34.6,14.4z"/>
			<path d="M41.5,19.6c-0.6-0.4-1-1-1.2-1.8s-0.4-1.9-0.4-3.2v-1.8c0-1.3,0.1-2.4,0.4-3.2c0.3-0.8,0.7-1.4,1.3-1.8
				c0.6-0.4,1.3-0.6,2.3-0.6c0.9,0,1.7,0.2,2.2,0.6c0.6,0.4,1,1,1.2,1.8c0.3,0.8,0.4,1.9,0.4,3.2v1.8c0,1.3-0.1,2.4-0.4,3.2
				c-0.3,0.8-0.7,1.4-1.2,1.8c-0.6,0.4-1.3,0.6-2.3,0.6C42.8,20.1,42,19.9,41.5,19.6z M44.6,17.6c0.2-0.4,0.2-1.1,0.2-2v-3.9
				c0-0.9-0.1-1.6-0.2-2c-0.2-0.4-0.4-0.6-0.8-0.6c-0.4,0-0.7,0.2-0.8,0.6c-0.2,0.4-0.2,1.1-0.2,2v3.9c0,0.9,0.1,1.6,0.2,2
				c0.2,0.4,0.4,0.6,0.8,0.6C44.2,18.2,44.5,18,44.6,17.6z"/>
			<path d="M56.8,19.9h-2.2l-0.2-1.5h-0.1c-0.6,1.2-1.5,1.7-2.7,1.7c-0.8,0-1.4-0.3-1.8-0.8c-0.4-0.5-0.6-1.4-0.6-2.6V7.4H52v9.2
				c0,0.6,0.1,1,0.2,1.2c0.1,0.2,0.3,0.4,0.6,0.4c0.2,0,0.5-0.1,0.7-0.2c0.2-0.2,0.4-0.3,0.5-0.6v-10h2.8V19.9z"/>
			<path d="M64.5,5.1h-2.8V20h-2.8V5.1h-2.8V2.8h8.4V5.1z"/>
			<path d="M71.3,19.9h-2.2l-0.2-1.5h-0.1c-0.6,1.2-1.5,1.7-2.7,1.7c-0.8,0-1.4-0.3-1.8-0.8s-0.6-1.4-0.6-2.6V7.4h2.8v9.2
				c0,0.6,0.1,1,0.2,1.2s0.3,0.4,0.6,0.4c0.2,0,0.5-0.1,0.7-0.2c0.2-0.2,0.4-0.3,0.5-0.6v-10h2.8C71.3,7.4,71.3,19.9,71.3,19.9z"/>
			<path d="M80.6,9.4c-0.2-0.8-0.4-1.4-0.8-1.7c-0.4-0.4-0.9-0.5-1.6-0.5c-0.5,0-1,0.1-1.5,0.4c-0.4,0.3-0.8,0.7-1,1.2l0,0V2.2H73
				V20h2.3l0.3-1.2h0.1c0.2,0.4,0.5,0.8,1,1c0.4,0.2,0.9,0.4,1.5,0.4c1,0,1.7-0.4,2.1-1.3s0.7-2.3,0.7-4.1v-2
				C80.9,11.3,80.8,10.2,80.6,9.4z M78,14.5c0,0.9,0,1.6-0.1,2.1s-0.2,0.9-0.4,1.1c-0.2,0.2-0.4,0.3-0.7,0.3c-0.2,0-0.4-0.1-0.6-0.2
				s-0.4-0.3-0.5-0.5v-7.1c0.1-0.3,0.3-0.6,0.5-0.8s0.5-0.3,0.8-0.3s0.5,0.1,0.7,0.3S78,10,78,10.5c0.1,0.5,0.1,1.3,0.1,2.3L78,14.5
				L78,14.5z"/>
			<path d="M84.9,15.2c0,0.8,0,1.4,0.1,1.8c0,0.4,0.1,0.7,0.3,0.9c0.2,0.2,0.4,0.3,0.7,0.3c0.4,0,0.7-0.2,0.9-0.5
				c0.2-0.3,0.2-0.9,0.3-1.6l2.4,0.1c0,0.1,0,0.3,0,0.4c0,1.2-0.3,2-1,2.6c-0.6,0.6-1.5,0.9-2.7,0.9c-1.4,0-2.4-0.4-2.9-1.3
				c-0.6-0.9-0.8-2.2-0.8-4v-2.2c0-1.9,0.3-3.3,0.9-4.1c0.6-0.9,1.6-1.3,3-1.3c1,0,1.7,0.2,2.2,0.5c0.5,0.4,0.9,0.9,1.1,1.7
				s0.3,1.8,0.3,3.1v2.1H85L84.9,15.2C85,15.2,84.9,15.2,84.9,15.2z M85.2,9.3c-0.1,0.2-0.2,0.5-0.3,0.9c0,0.4-0.1,1-0.1,1.8v0.9
				h2.1V12c0-0.8,0-1.4-0.1-1.8c-0.1-0.4-0.2-0.7-0.3-0.9C86.4,9.1,86.1,9,85.8,9C85.6,9.1,85.4,9.2,85.2,9.3z"/>
		</g>
	</g>
</g>
<text transform="matrix(1 0 0 1 86.9004 6.2719)" class="st2 st3 st4">IN</text>
</svg>
